<?xml version="1.0" encoding="UTF-8" standalone="no"?>
<!DOCTYPE svg PUBLIC "-//W3C//DTD SVG 1.1//EN"
 "http://www.w3.org/Graphics/SVG/1.1/DTD/svg11.dtd">
<!-- Generated by graphviz version 2.40.1 (20161225.0304)
 -->
<!-- Title: %0 Pages: 1 -->
<svg width="629pt" height="1336pt"
 viewBox="0.00 0.00 629.06 1336.00" xmlns="http://www.w3.org/2000/svg" xmlns:xlink="http://www.w3.org/1999/xlink">
<g id="graph0" class="graph" transform="scale(1 1) rotate(0) translate(144 1192)">
<title>%0</title>
<polygon fill="#ffffff" stroke="transparent" points="-144,144 -144,-1192 485.0604,-1192 485.0604,144 -144,144"/>
<!-- auctions -->
<g id="node1" class="node">
<title>auctions</title>
<polygon fill="#4477c9" stroke="transparent" points="0,0 0,-398 95,-398 95,0 0,0"/>
<polygon fill="#add8e6" stroke="transparent" points=".5,-380 .5,-398 95.5,-398 95.5,-380 .5,-380"/>
<polygon fill="none" stroke="#000000" points=".5,-380 .5,-398 95.5,-398 95.5,-380 .5,-380"/>
<text text-anchor="start" x="30.7538" y="-386.9" font-family="Times,serif" font-weight="bold" font-style="italic" font-size="9.00" fill="#000000"> auctions </text>
<polygon fill="none" stroke="#000000" points=".5,-360 .5,-380 95.5,-380 95.5,-360 .5,-360"/>
<text text-anchor="start" x="5.5" y="-366.9" font-family="Times,serif" font-size="9.00" fill="#000000">name: String</text>
<polygon fill="none" stroke="#000000" points=".5,-340 .5,-360 95.5,-360 95.5,-340 .5,-340"/>
<text text-anchor="start" x="5.5" y="-346.9" font-family="Times,serif" font-size="9.00" fill="#000000">description: String</text>
<polygon fill="none" stroke="#000000" points=".5,-320 .5,-340 95.5,-340 95.5,-320 .5,-320"/>
<text text-anchor="start" x="5.5" y="-326.9" font-family="Times,serif" font-size="9.00" fill="#000000">price: Number</text>
<polygon fill="none" stroke="#000000" points=".5,-300 .5,-320 95.5,-320 95.5,-300 .5,-300"/>
<text text-anchor="start" x="5.5" y="-306.9" font-family="Times,serif" font-size="9.00" fill="#000000">vinCode: String</text>
<polygon fill="none" stroke="#000000" points=".5,-280 .5,-300 95.5,-300 95.5,-280 .5,-280"/>
<text text-anchor="start" x="5.5" y="-286.9" font-family="Times,serif" font-size="9.00" fill="#000000">carMileage: Number</text>
<polygon fill="none" stroke="#000000" points=".5,-260 .5,-280 95.5,-280 95.5,-260 .5,-260"/>
<text text-anchor="start" x="5.5" y="-266.9" font-family="Times,serif" font-size="9.00" fill="#000000">color: String</text>
<polygon fill="none" stroke="#000000" points=".5,-240 .5,-260 95.5,-260 95.5,-240 .5,-240"/>
<text text-anchor="start" x="5.5" y="-246.9" font-family="Times,serif" font-size="9.00" fill="#000000">year: Number</text>
<polygon fill="none" stroke="#000000" points=".5,-220 .5,-240 95.5,-240 95.5,-220 .5,-220"/>
<text text-anchor="start" x="5.5" y="-226.9" font-family="Times,serif" font-size="9.00" fill="#000000">modelId: Number</text>
<polygon fill="none" stroke="#000000" points=".5,-200 .5,-220 95.5,-220 95.5,-200 .5,-200"/>
<text text-anchor="start" x="5.5" y="-206.9" font-family="Times,serif" font-size="9.00" fill="#000000">brandId: Number</text>
<polygon fill="none" stroke="#000000" points=".5,-180 .5,-200 95.5,-200 95.5,-180 .5,-180"/>
<text text-anchor="start" x="5.5" y="-186.9" font-family="Times,serif" font-size="9.00" fill="#000000">thumbnail: String</text>
<polygon fill="none" stroke="#000000" points=".5,-160 .5,-180 95.5,-180 95.5,-160 .5,-160"/>
<text text-anchor="start" x="5.5" y="-166.9" font-family="Times,serif" font-size="9.00" fill="#000000">viewCount: Number</text>
<polygon fill="none" stroke="#000000" points=".5,-140 .5,-160 95.5,-160 95.5,-140 .5,-140"/>
<text text-anchor="start" x="5.5" y="-146.9" font-family="Times,serif" font-size="9.00" fill="#000000">dateCreate: Date</text>
<polygon fill="none" stroke="#000000" points=".5,-120 .5,-140 95.5,-140 95.5,-120 .5,-120"/>
<text text-anchor="start" x="5.5" y="-126.9" font-family="Times,serif" font-size="9.00" fill="#000000">dateClose: Number</text>
<polygon fill="none" stroke="#000000" points=".5,-100 .5,-120 95.5,-120 95.5,-100 .5,-100"/>
<text text-anchor="start" x="5.5" y="-106.9" font-family="Times,serif" font-size="9.00" fill="#000000">status: Number</text>
<polygon fill="none" stroke="#000000" points=".5,-80 .5,-100 95.5,-100 95.5,-80 .5,-80"/>
<text text-anchor="start" x="5.5" y="-86.9" font-family="Times,serif" font-size="9.00" fill="#000000">categoryId: String</text>
<polygon fill="none" stroke="#000000" points=".5,-60 .5,-80 95.5,-80 95.5,-60 .5,-60"/>
<text text-anchor="start" x="5.3832" y="-66.9" font-family="Times,serif" font-size="9.00" fill="#000000">isCommercial: Boolean</text>
<polygon fill="none" stroke="#000000" points=".5,-40 .5,-60 95.5,-60 95.5,-40 .5,-40"/>
<text text-anchor="start" x="5.5" y="-46.9" font-family="Times,serif" font-size="9.00" fill="#000000">type: Number</text>
<polygon fill="none" stroke="#000000" points=".5,-20 .5,-40 95.5,-40 95.5,-20 .5,-20"/>
<text text-anchor="start" x="5.5" y="-26.9" font-family="Times,serif" font-size="9.00" fill="#000000">_id: ObjectId</text>
<polygon fill="none" stroke="#000000" points=".5,0 .5,-20 95.5,-20 95.5,0 .5,0"/>
<text text-anchor="start" x="5.5" y="-6.9" font-family="Times,serif" font-size="9.00" fill="#000000">__v: Number</text>
</g>
<!-- auctionrates -->
<g id="node2" class="node">
<title>auctionrates</title>
<polygon fill="#4477c9" stroke="transparent" points="268.0604,-450 268.0604,-628 341.0604,-628 341.0604,-450 268.0604,-450"/>
<polygon fill="#add8e6" stroke="transparent" points="268.5604,-610 268.5604,-628 341.5604,-628 341.5604,-610 268.5604,-610"/>
<polygon fill="none" stroke="#000000" points="268.5604,-610 268.5604,-628 341.5604,-628 341.5604,-610 268.5604,-610"/>
<text text-anchor="start" x="281.0705" y="-616.9" font-family="Times,serif" font-weight="bold" font-style="italic" font-size="9.00" fill="#000000"> auctionrates </text>
<polygon fill="none" stroke="#000000" points="268.5604,-590 268.5604,-610 341.5604,-610 341.5604,-590 268.5604,-590"/>
<text text-anchor="start" x="273.5604" y="-596.9" font-family="Times,serif" font-size="9.00" fill="#000000">time: Number</text>
<polygon fill="none" stroke="#000000" points="268.5604,-570 268.5604,-590 341.5604,-590 341.5604,-570 268.5604,-570"/>
<text text-anchor="start" x="273.5604" y="-576.9" font-family="Times,serif" font-size="9.00" fill="#000000">value: Number</text>
<polygon fill="none" stroke="#000000" points="268.5604,-550 268.5604,-570 341.5604,-570 341.5604,-550 268.5604,-550"/>
<text text-anchor="start" x="273.5604" y="-556.9" font-family="Times,serif" font-size="9.00" fill="#000000">userId: String</text>
<polygon fill="none" stroke="#000000" points="268.5604,-530 268.5604,-550 341.5604,-550 341.5604,-530 268.5604,-530"/>
<text text-anchor="start" x="273.5604" y="-536.9" font-family="Times,serif" font-size="9.00" fill="#000000">auctionId: String</text>
<polygon fill="none" stroke="#000000" points="268.5604,-510 268.5604,-530 341.5604,-530 341.5604,-510 268.5604,-510"/>
<text text-anchor="start" x="273.4443" y="-516.9" font-family="Times,serif" font-size="9.00" fill="#000000">userName: String</text>
<polygon fill="none" stroke="#000000" points="268.5604,-490 268.5604,-510 341.5604,-510 341.5604,-490 268.5604,-490"/>
<text text-anchor="start" x="273.5604" y="-496.9" font-family="Times,serif" font-size="9.00" fill="#000000">user: ObjectId</text>
<polygon fill="none" stroke="#000000" points="268.5604,-470 268.5604,-490 341.5604,-490 341.5604,-470 268.5604,-470"/>
<text text-anchor="start" x="273.5604" y="-476.9" font-family="Times,serif" font-size="9.00" fill="#000000">_id: ObjectId</text>
<polygon fill="none" stroke="#000000" points="268.5604,-450 268.5604,-470 341.5604,-470 341.5604,-450 268.5604,-450"/>
<text text-anchor="start" x="273.5604" y="-456.9" font-family="Times,serif" font-size="9.00" fill="#000000">__v: Number</text>
</g>
<!-- categories -->
<g id="node3" class="node">
<title>categories</title>
<polygon fill="#4477c9" stroke="transparent" points="9.5,-720 9.5,-838 85.5,-838 85.5,-720 9.5,-720"/>
<polygon fill="#add8e6" stroke="transparent" points="9.5,-820 9.5,-838 85.5,-838 85.5,-820 9.5,-820"/>
<polygon fill="none" stroke="#000000" points="9.5,-820 9.5,-838 85.5,-838 85.5,-820 9.5,-820"/>
<text text-anchor="start" x="27.0106" y="-826.9" font-family="Times,serif" font-weight="bold" font-style="italic" font-size="9.00" fill="#000000"> categories </text>
<polygon fill="none" stroke="#000000" points="9.5,-800 9.5,-820 85.5,-820 85.5,-800 9.5,-800"/>
<text text-anchor="start" x="14.5" y="-806.9" font-family="Times,serif" font-size="9.00" fill="#000000">name: String</text>
<polygon fill="none" stroke="#000000" points="9.5,-780 9.5,-800 85.5,-800 85.5,-780 9.5,-780"/>
<text text-anchor="start" x="14.1289" y="-786.9" font-family="Times,serif" font-size="9.00" fill="#000000">description: String</text>
<polygon fill="none" stroke="#000000" points="9.5,-760 9.5,-780 85.5,-780 85.5,-760 9.5,-760"/>
<text text-anchor="start" x="14.5" y="-766.9" font-family="Times,serif" font-size="9.00" fill="#000000">thumbnail: String</text>
<polygon fill="none" stroke="#000000" points="9.5,-740 9.5,-760 85.5,-760 85.5,-740 9.5,-740"/>
<text text-anchor="start" x="14.5" y="-746.9" font-family="Times,serif" font-size="9.00" fill="#000000">_id: ObjectId</text>
<polygon fill="none" stroke="#000000" points="9.5,-720 9.5,-740 85.5,-740 85.5,-720 9.5,-720"/>
<text text-anchor="start" x="14.5" y="-726.9" font-family="Times,serif" font-size="9.00" fill="#000000">__v: Number</text>
</g>
<!-- comments -->
<g id="node4" class="node">
<title>comments</title>
<polygon fill="#4477c9" stroke="transparent" points="11,-910 11,-1048 84,-1048 84,-910 11,-910"/>
<polygon fill="#add8e6" stroke="transparent" points="11.5,-1030 11.5,-1048 84.5,-1048 84.5,-1030 11.5,-1030"/>
<polygon fill="none" stroke="#000000" points="11.5,-1030 11.5,-1048 84.5,-1048 84.5,-1030 11.5,-1030"/>
<text text-anchor="start" x="27.2532" y="-1036.9" font-family="Times,serif" font-weight="bold" font-style="italic" font-size="9.00" fill="#000000"> comments </text>
<polygon fill="none" stroke="#000000" points="11.5,-1010 11.5,-1030 84.5,-1030 84.5,-1010 11.5,-1010"/>
<text text-anchor="start" x="16.5" y="-1016.9" font-family="Times,serif" font-size="9.00" fill="#000000">comment: String</text>
<polygon fill="none" stroke="#000000" points="11.5,-990 11.5,-1010 84.5,-1010 84.5,-990 11.5,-990"/>
<text text-anchor="start" x="16.5" y="-996.9" font-family="Times,serif" font-size="9.00" fill="#000000">userId: String</text>
<polygon fill="none" stroke="#000000" points="11.5,-970 11.5,-990 84.5,-990 84.5,-970 11.5,-970"/>
<text text-anchor="start" x="16.5" y="-976.9" font-family="Times,serif" font-size="9.00" fill="#000000">auctionId: String</text>
<polygon fill="none" stroke="#000000" points="11.5,-950 11.5,-970 84.5,-970 84.5,-950 11.5,-950"/>
<text text-anchor="start" x="16.3839" y="-956.9" font-family="Times,serif" font-size="9.00" fill="#000000">userName: String</text>
<polygon fill="none" stroke="#000000" points="11.5,-930 11.5,-950 84.5,-950 84.5,-930 11.5,-930"/>
<text text-anchor="start" x="16.5" y="-936.9" font-family="Times,serif" font-size="9.00" fill="#000000">_id: ObjectId</text>
<polygon fill="none" stroke="#000000" points="11.5,-910 11.5,-930 84.5,-930 84.5,-910 11.5,-910"/>
<text text-anchor="start" x="16.5" y="-916.9" font-family="Times,serif" font-size="9.00" fill="#000000">__v: Number</text>
</g>
<!-- users -->
<g id="node5" class="node">
<title>users</title>
<polygon fill="#4477c9" stroke="transparent" points="8.5,-470 8.5,-648 86.5,-648 86.5,-470 8.5,-470"/>
<polygon fill="#add8e6" stroke="transparent" points="8.5,-630 8.5,-648 86.5,-648 86.5,-630 8.5,-630"/>
<polygon fill="none" stroke="#000000" points="8.5,-630 8.5,-648 86.5,-648 86.5,-630 8.5,-630"/>
<text text-anchor="start" x="36.0043" y="-636.9" font-family="Times,serif" font-weight="bold" font-style="italic" font-size="9.00" fill="#000000"> users </text>
<polygon fill="none" stroke="#000000" points="8.5,-610 8.5,-630 86.5,-630 86.5,-610 8.5,-610"/>
<text text-anchor="start" x="13.5" y="-616.9" font-family="Times,serif" font-size="9.00" fill="#000000">name: String</text>
<polygon fill="none" stroke="#000000" points="8.5,-590 8.5,-610 86.5,-610 86.5,-590 8.5,-590"/>
<text text-anchor="start" x="13.5" y="-596.9" font-family="Times,serif" font-size="9.00" fill="#000000">email: String</text>
<polygon fill="none" stroke="#000000" points="8.5,-570 8.5,-590 86.5,-590 86.5,-570 8.5,-570"/>
<text text-anchor="start" x="13.5" y="-576.9" font-family="Times,serif" font-size="9.00" fill="#000000">password: String</text>
<polygon fill="none" stroke="#000000" points="8.5,-550 8.5,-570 86.5,-570 86.5,-550 8.5,-550"/>
<text text-anchor="start" x="13.5" y="-556.9" font-family="Times,serif" font-size="9.00" fill="#000000">role: String</text>
<polygon fill="none" stroke="#000000" points="8.5,-530 8.5,-550 86.5,-550 86.5,-530 8.5,-530"/>
<text text-anchor="start" x="13.5" y="-536.9" font-family="Times,serif" font-size="9.00" fill="#000000">thumbnail: String</text>
<polygon fill="none" stroke="#000000" points="8.5,-510 8.5,-530 86.5,-530 86.5,-510 8.5,-510"/>
<text text-anchor="start" x="13.1393" y="-516.9" font-family="Times,serif" font-size="9.00" fill="#000000">auctionRate: Array</text>
<polygon fill="none" stroke="#000000" points="8.5,-490 8.5,-510 86.5,-510 86.5,-490 8.5,-490"/>
<text text-anchor="start" x="13.5" y="-496.9" font-family="Times,serif" font-size="9.00" fill="#000000">_id: ObjectId</text>
<polygon fill="none" stroke="#000000" points="8.5,-470 8.5,-490 86.5,-490 86.5,-470 8.5,-470"/>
<text text-anchor="start" x="13.5" y="-476.9" font-family="Times,serif" font-size="9.00" fill="#000000">__v: Number</text>
</g>
<!-- users&#45;&gt;auctionrates -->
<g id="edge1" class="edge">
<title>users:6&#45;&gt;auctionrates:5</title>
<path fill="none" stroke="#000000" stroke-dasharray="5,2" d="M86.5,-500C167.4157,-500 187.6447,-500 268.5604,-500"/>
<text text-anchor="middle" x="181.5302" y="-505.2" font-family="Times,serif" font-size="14.00" fill="#000000">users&#45;auctionrates</text>
<text text-anchor="middle" x="263.5071" y="-487.4" font-family="Times,serif" font-size="14.00" fill="#000000">N</text>
<text text-anchor="middle" x="90" y="-487.4" font-family="Times,serif" font-size="14.00" fill="#000000">1</text>
</g>
</g>
</svg>
